<svg width="474" height="102" viewBox="0 0 474 102" fill="none" xmlns="http://www.w3.org/2000/svg">
<path d="M44.7442 68.029H39.0776C32.9064 68.029 29 65.7301 29 60V48C29 42 32.991 39.009 36.9865 39H50V21H29V0L9.97945 5.00001V21H0V39H16C16 39 9.97945 42 9.97945 50V63.9086C9.97945 77.5 20.5 85 33.9954 85H40C47.5 85 52.8 79 52.8 79L42 102H64L91.9999 40H70L63.1039 55.9613C59.9392 63.2862 52.7235 68.029 44.7442 68.029Z" fill="#044F44"/>
<path d="M160.5 63C156.1 63 155 60.52 155 57V41H162V31H155V15L140 21V31H132V41H140V57.76C140 66.16 145.68 71 156 71C160.08 71 165.5 69.5 167 68V58.96C164.5 61.5 162.18 63 160.5 63Z" fill="#044F44"/>
<path d="M195.52 29.96C190.5 29.96 183.5 30.5 179 31V41.5C182.63 39.08 186.5 38 191 38H194.5C202.34 38 202.04 42.44 202.04 45.96H186.16C175.84 45.96 170 50.12 170 57.96C170 66.36 176.66 71 188.5 71C194.34 71 199.68 69.16 202.96 64.68L204.609 71H216V45.68C216 34.96 210 29.96 195.52 29.96ZM191 63C186.84 63 184 60.72 184 58C184 55.28 186.48 54 190 54H201C200.36 58.8 197.4 63 191 63Z" fill="#044F44"/>
<path d="M323 37C321.5 34.5 317 30 309 30H297C286.257 30 278 39.8345 278 50.525C278 61.1453 286 71 297 71H308C317.5 71 321.5 66.5 323 64V87H335V31H323V37ZM310 64C301.5 64 295 60.505 295 50.525C295 40.545 301.5 37 310 37C318.5 37 323 41.535 323 50.525C323 59.515 318.5 64 310 64Z" fill="#044F44"/>
<path d="M372 50C372 58.32 369.88 64 361 64C354.28 64 350 60.46 350 53.5V31H341V55C341 65.64 347.2 71 358 71C364.24 71 368.8 68.64 372 64V71H381V31H372V50Z" fill="#044F44"/>
<path d="M428 49.5C428 38.7 421.9 30 407.5 30C394.46 30 386 38.48 386 50.56C386 62.72 394.68 71 409 71C415.88 71 420.5 69.5 426 67L423.5 60C419.26 62.4 414.36 64 409 64C400.76 64 395.56 59.16 395 53H428C428 51.5 428 50 428 49.5ZM395 47C395.8 41.4 400.78 37 407.5 37C415.58 37 420 42.04 420 46.52V47H395Z" fill="#044F44"/>
<path d="M458 30C451.12 30 444.88 32.28 442 37V31H433V71H442V51C442 41.88 446.9 37 454.5 37C461.22 37 465 40.56 465 48V71H474V44.5C474 34.98 468.4 30 458 30Z" fill="#044F44"/>
<path d="M235 48.5C235 59 236 63 243 63C246.778 63 248.715 60 249.654 57.9042L262.021 31H277L251 87H235.888L246 66C246 66 241.5 71 237 71H234C228.5 71 221 66 221 52L221 31H235V48.5Z" fill="#044F44"/>
</svg>
