<svg width="342" height="72" viewBox="0 0 342 72" fill="none" xmlns="http://www.w3.org/2000/svg">
<path d="M28.5 48C24.1 48 23 45.52 23 42V26H30V16H23V0L8 6V16H0V26H8V42.76C8 51.16 13.68 56 24 56C28.08 56 33.5 54.5 35 53V43.96C32.5 46.5 30.18 48 28.5 48Z" fill="#044F44"/>
<path d="M63.52 14.96C58.5 14.96 51.5 15.5 47 16V26.5C50.6299 24.08 54.5 23 59 23H62.5C70.34 23 70.04 27.44 70.04 30.96H54.16C43.84 30.96 38 35.12 38 42.96C38 51.36 44.66 56 56.5 56C62.34 56 67.68 54.16 70.96 49.68L72.6094 56H84V30.68C84 19.96 78 14.96 63.52 14.96ZM59 48C54.84 48 52 45.72 52 43C52 40.28 54.48 39 58 39H69C68.36 43.8 65.4 48 59 48Z" fill="#044F44"/>
<path d="M191 22C189.5 19.5 185 15 177 15H165C154.257 15 146 24.8345 146 35.525C146 46.1453 154 56 165 56H176C185.5 56 189.5 51.5 191 49V72H203V16H191V22ZM178 49C169.5 49 163 45.505 163 35.525C163 25.545 169.5 22 178 22C186.5 22 191 26.535 191 35.525C191 44.515 186.5 49 178 49Z" fill="#044F44"/>
<path d="M240 35C240 43.32 237.88 49 229 49C222.28 49 218 45.46 218 38.5V16H209V40C209 50.64 215.2 56 226 56C232.24 56 236.8 53.64 240 49V56H249V16H240V35Z" fill="#044F44"/>
<path d="M296 34.5C296 23.7 289.9 15 275.5 15C262.46 15 254 23.48 254 35.56C254 47.72 262.68 56 277 56C283.88 56 288.5 54.5 294 52L291.5 45C287.26 47.4 282.36 49 277 49C268.76 49 263.56 44.16 263 38H296C296 36.5 296 35 296 34.5ZM263 32C263.8 26.4 268.78 22 275.5 22C283.58 22 288 27.04 288 31.52V32H263Z" fill="#044F44"/>
<path d="M326 15C319.12 15 312.88 17.28 310 22V16H301V56H310V36C310 26.88 314.9 22 322.5 22C329.22 22 333 25.56 333 33V56H342V29.5C342 19.98 336.4 15 326 15Z" fill="#044F44"/>
<path d="M103 33.5C103 44 104 48 111 48C114.778 48 116.715 45 117.654 42.9042L130.021 16H145L119 72H103.888L114 51C114 51 109.5 56 105 56H102C96.5 56 89 51 89 37L89 16H103V33.5Z" fill="#044F44"/>
</svg>
